PathFileType	4	(X/Y/Z)	G:\マイドライブ\biomec\experimentalData\240725\CJ3.trc
DataRate	CameraRate	NumFrames	NumMarkers	Units	OrigDataRate	OrigDataStartFrame	OrigNumFrames
200.00	200.00	      4	52	mm	200.00	1	      1667
Frame#	Time	handR			wrRI			wrRO			elbRI			elbRO			shRF			shRU			shRB			handL			wrLI			wrLO			elbLI			elbLO			shLF			shLU			shLB			toeR			baRI			baRO			heelR			anRI			anRO			knRI			knRO			troR			toeL			baLI			baLO			heelL			anLI			anLO			knLI			knLO			troL			head			earR			earL			clav			c7			ribR			ribL			xiph			ASISR			ASISL			PSISR			PSISL			t8			t11			L1			L3			LS			COX			
		X1	Y1	Z1	X2	Y2	Z2	X3	Y3	Z3	X4	Y4	Z4	X5	Y5	Z5	X6	Y6	Z6	X7	Y7	Z7	X8	Y8	Z8	X9	Y9	Z9	X10	Y10	Z10	X11	Y11	Z11	X12	Y12	Z12	X13	Y13	Z13	X14	Y14	Z14	X15	Y15	Z15	X16	Y16	Z16	X17	Y17	Z17	X18	Y18	Z18	X19	Y19	Z19	X20	Y20	Z20	X21	Y21	Z21	X22	Y22	Z22	X23	Y23	Z23	X24	Y24	Z24	X25	Y25	Z25	X26	Y26	Z26	X27	Y27	Z27	X28	Y28	Z28	X29	Y29	Z29	X30	Y30	Z30	X31	Y31	Z31	X32	Y32	Z32	X33	Y33	Z33	X34	Y34	Z34	X35	Y35	Z35	X36	Y36	Z36	X37	Y37	Z37	X38	Y38	Z38	X39	Y39	Z39	X40	Y40	Z40	X41	Y41	Z41	X42	Y42	Z42	X43	Y43	Z43	X44	Y44	Z44	X45	Y45	Z45	X46	Y46	Z46	X47	Y47	Z47	X48	Y48	Z48	X49	Y49	Z49	X50	Y50	Z50	X51	Y51	Z51	X52	Y52	Z52	

1	0.000	188.70670	1690.45667	797.48657	197.58740	1749.60388	869.68530	226.74576	1689.30884	891.05255	294.48782	1808.20996	1096.89929	219.81293	1815.96875	1099.53235	254.05496	1740.38928	1392.52502	219.27016	1796.09143	1412.59985	234.63760	1846.75903	1376.62402	618.06714	1648.89246	788.80743	630.65533	1706.11438	864.79382	575.40198	1652.86707	870.54846	565.08002	1767.00854	1089.86536	636.76367	1753.16455	1092.06848	569.75116	1688.94458	1387.69519	620.50653	1728.95911	1408.44250	609.21198	1796.50977	1369.89441	336.99756	1618.40356	54.47017	382.65363	1700.56812	38.05990	259.97888	1721.64978	46.70222	348.33676	1903.61621	43.48353	381.39450	1819.05005	120.15638	287.82336	1836.68799	104.70247	371.42026	1794.59009	478.96570	267.81860	1774.72888	476.04587	249.81929	1730.10559	873.87158	529.07788	1556.58276	58.35304	479.58099	1627.21985	55.76892	590.78259	1655.36340	51.40942	524.16644	1841.73254	41.57649	484.87408	1753.24060	133.47925	571.95514	1775.46899	108.29130	477.32544	1757.75549	480.50940	583.74237	1746.04675	487.11340	587.22565	1710.25061	874.77087	418.37207	1799.27173	1702.50806	329.65192	1710.42615	1559.30554	486.67032	1690.71570	1561.18909	410.80890	1692.67749	1388.62061	431.49548	1810.61243	1469.66772	307.13443	1713.77795	1103.93140	531.40784	1690.44519	1103.27563	408.63416	1663.17529	1233.00488	306.75339	1667.14038	971.11591	527.20563	1656.22156	981.50836	367.72818	1837.35547	994.25220	488.51190	1826.98535	999.51263	440.45102	1879.90198	1259.87671	435.08612	1858.39600	1132.34570	434.93857	1839.62952	1075.02612	429.77289	1833.91370	1028.32739	430.62567	1842.62927	989.07098	433.00702	1862.92041	888.61853	
2	0.005	190.46846	1689.49329	797.23505	198.45656	1748.94519	869.44104	227.73674	1689.23096	891.23694	294.68845	1808.12012	1096.82214	219.97511	1815.54761	1099.31653	253.72385	1740.36292	1392.23572	218.89325	1795.52600	1412.37378	234.03430	1846.25757	1376.50305	618.77142	1648.78357	788.88080	630.75891	1706.08618	864.93317	575.86530	1652.48242	870.53693	564.65039	1767.31897	1089.75476	636.12280	1754.26001	1092.10938	569.55725	1689.12830	1387.62427	620.44507	1729.10938	1408.38306	608.61914	1796.86902	1369.83337	337.02539	1618.37549	54.42548	382.66156	1700.55640	38.03497	259.92953	1721.80566	46.77848	348.35226	1903.60034	43.51957	380.71024	1820.26563	120.08691	287.80316	1836.67920	104.71054	371.35867	1794.67896	478.90689	267.75238	1774.68005	476.00922	249.98817	1730.26208	873.84949	529.07886	1556.58325	58.33815	479.58057	1627.22266	55.76912	590.77283	1655.37231	51.36035	524.17352	1841.73633	41.58858	484.85938	1753.25000	133.48946	571.86743	1775.52661	108.33373	477.27414	1757.78491	480.48660	583.67780	1746.25439	487.12415	587.20459	1710.36267	874.77435	418.03036	1799.28381	1702.43921	329.46500	1710.22241	1559.34326	486.47366	1690.65015	1561.15271	410.62189	1692.53149	1388.56116	431.02637	1810.46997	1469.62256	306.97107	1713.17908	1103.77246	531.27753	1690.42236	1103.29114	408.53577	1662.94495	1232.98230	306.74448	1666.68591	970.92267	527.21423	1656.13550	981.42798	367.42380	1837.11218	994.26605	488.22241	1826.86731	999.57733	439.84525	1879.72900	1259.82629	434.63730	1858.14209	1132.30273	434.64386	1839.44092	1075.04919	429.45020	1833.68823	1028.32202	430.30325	1842.43250	989.07635	432.67334	1862.73706	888.60529	
3	0.010	191.71138	1688.41711	797.01672	199.17279	1748.28381	869.34662	229.62758	1688.46069	890.98639	295.03455	1808.79358	1096.43738	220.22366	1815.09009	1099.11292	253.58772	1739.93604	1392.10657	218.46481	1794.90417	1412.18494	233.49286	1845.79956	1376.32837	619.50018	1648.55188	788.97675	630.97595	1705.86292	865.09680	576.39960	1652.13892	870.57153	564.04517	1767.92444	1089.62793	635.72552	1754.73169	1092.04675	569.38116	1689.28552	1387.53235	620.24377	1729.34424	1408.30811	608.08826	1797.16333	1369.77551	337.03442	1618.37769	54.41226	382.66818	1700.54211	38.03814	259.94229	1721.80530	46.75053	348.32333	1903.61914	43.48791	381.37546	1819.07312	120.13374	287.81082	1836.67676	104.68353	371.30185	1794.69421	478.85739	267.75348	1774.56616	475.99857	250.17239	1730.47375	873.83582	529.07996	1556.57739	58.32348	479.59518	1627.21863	55.73944	590.76855	1655.34961	51.42725	524.14661	1841.74414	41.60701	484.84692	1753.28296	133.47012	571.88464	1775.55017	108.32768	477.22586	1757.85364	480.50943	583.64307	1746.43689	487.15039	587.18896	1710.44519	874.81683	417.70398	1799.30664	1702.36279	329.25494	1710.01489	1559.39294	486.26276	1690.57324	1561.10608	410.44446	1692.36230	1388.48450	430.54956	1810.35693	1469.61511	306.82568	1712.63647	1103.62170	531.15137	1690.40125	1103.31104	408.45752	1662.75415	1232.98438	306.73022	1666.29858	970.75806	527.20477	1656.07312	981.40015	367.20901	1836.90527	994.27258	487.97021	1826.74280	999.62689	439.29224	1879.57886	1259.79187	434.13361	1858.00940	1132.33350	434.26114	1839.25012	1075.01697	429.10938	1833.43091	1028.28613	429.98486	1842.25732	989.07593	432.35422	1862.59265	888.67969	
4	0.015	193.07640	1687.39331	796.84467	199.59291	1747.60925	869.33685	230.34523	1688.13843	891.17603	295.34198	1808.80945	1096.17896	220.50163	1814.71521	1098.92004	253.35553	1739.41382	1391.85291	217.96992	1794.36768	1411.95667	233.04419	1845.24609	1376.12708	620.18994	1648.27576	789.06085	631.24542	1705.61902	865.31714	577.00671	1651.85095	870.63776	563.64404	1768.31091	1089.51782	635.49805	1755.30835	1091.99292	569.21057	1689.51636	1387.47949	619.96356	1729.76013	1408.20251	607.61212	1797.43616	1369.60254	337.05286	1618.36401	54.39397	382.69186	1700.52979	38.04115	259.96292	1721.77954	46.74307	348.29388	1903.59937	43.47284	380.74072	1820.19373	120.02840	287.81732	1836.65186	104.68345	371.28836	1794.56567	478.84012	267.69305	1774.37378	475.94833	249.29424	1731.73157	873.91272	529.09454	1556.57849	58.30231	479.59106	1627.20435	55.75303	590.78253	1655.34204	51.40564	524.11584	1841.72217	41.60242	484.82974	1753.27856	133.48228	571.83801	1775.58252	108.31435	477.15646	1757.90649	480.51184	583.58722	1746.56494	487.14130	587.16058	1710.53381	874.90100	417.41623	1799.31140	1702.26404	329.79800	1710.01636	1559.34229	486.10098	1690.49170	1561.11890	410.26398	1692.23633	1388.43201	430.06860	1810.26294	1469.59265	306.72025	1712.22729	1103.53589	531.05078	1690.37061	1103.30615	408.38217	1662.56653	1232.96570	306.71210	1665.97168	970.61237	527.16608	1656.06165	981.42737	366.95996	1836.68921	994.21301	487.70065	1826.61060	999.64642	438.71588	1879.51636	1259.71899	433.63116	1857.82947	1132.34058	433.83191	1838.95288	1074.96191	428.87299	1833.23352	1028.24731	429.72955	1842.09045	989.06580	432.09949	1862.43835	888.72162	
